<?xml version="1.0" encoding="UTF-8"?>
<!DOCTYPE svg PUBLIC "-//W3C//DTD SVG 1.1//EN" "http://www.w3.org/Graphics/SVG/1.1/DTD/svg11.dtd">
<!-- Creator: CorelDRAW 2018 (64 Bit) -->
<svg xmlns="http://www.w3.org/2000/svg" xml:space="preserve" width="96px" height="96px" version="1.1" style="shape-rendering:geometricPrecision; text-rendering:geometricPrecision; image-rendering:optimizeQuality; fill-rule:evenodd; clip-rule:evenodd"
viewBox="0 0 96 96"
 xmlns:xlink="http://www.w3.org/1999/xlink">
 <defs>
  <style type="text/css">
   <![CDATA[
    .fil0 {fill:white}
   ]]>
  </style>
 </defs>
 <g id="Camada_x0020_1">
  <metadata id="CorelCorpID_0Corel-Layer"/>
  <path class="fil0" d="M30 7.5c-12.407,0 -22.5,10.092 -22.5,22.5l0 36c0,12.407 10.093,22.5 22.5,22.5l36 0c12.408,0 22.5,-10.093 22.5,-22.5l0 -36c0,-12.408 -10.092,-22.5 -22.5,-22.5l-36 0zm0 8.998l36 0c7.445,0 13.502,6.057 13.502,13.502l0 36c0,7.444 -6.057,13.501 -13.502,13.501l-36 0c-7.444,0 -13.501,-6.057 -13.501,-13.501l0 -36c0,-7.445 6.057,-13.502 13.501,-13.502zm40.501 4.501c-2.485,0 -4.501,2.015 -4.501,4.5 0,2.485 2.016,4.501 4.501,4.501 2.485,0 4.5,-2.016 4.5,-4.501 0,-2.485 -2.015,-4.5 -4.5,-4.5zm-22.501 4.5c-12.408,0 -22.5,10.093 -22.5,22.501 0,12.408 10.092,22.5 22.5,22.5 12.408,0 22.501,-10.092 22.501,-22.5 0,-12.408 -10.093,-22.501 -22.501,-22.501zm0 9c7.443,0 13.5,6.058 13.5,13.501 0,7.443 -6.057,13.5 -13.5,13.5 -7.443,0 -13.501,-6.057 -13.501,-13.5 0,-7.443 6.058,-13.501 13.501,-13.501z"/>
 </g>
</svg>
