<?xml version="1.0" encoding="UTF-8"?>
<!DOCTYPE svg PUBLIC "-//W3C//DTD SVG 1.1//EN" "http://www.w3.org/Graphics/SVG/1.1/DTD/svg11.dtd">
<!-- Creator: CorelDRAW 2018 (64 Bit) -->
<svg xmlns="http://www.w3.org/2000/svg" xml:space="preserve" width="96px" height="96px" version="1.1" style="shape-rendering:geometricPrecision; text-rendering:geometricPrecision; image-rendering:optimizeQuality; fill-rule:evenodd; clip-rule:evenodd"
viewBox="0 0 96 96"
 xmlns:xlink="http://www.w3.org/1999/xlink">
 <defs>
  <style type="text/css">
   <![CDATA[
    .fil0 {fill:white}
   ]]>
  </style>
 </defs>
 <g id="Camada_x0020_1">
  <metadata id="CorelCorpID_0Corel-Layer"/>
  <path class="fil0" d="M86.213 25.253c-0.529,-2.25 -2.22,-4.055 -4.478,-4.771 -5.983,-1.898 -18.963,-3.733 -33.735,-3.733 -14.772,0 -27.752,1.835 -33.736,3.733 -2.258,0.716 -3.949,2.521 -4.478,4.771 -1,4.248 -2.412,12.126 -2.412,22.747 0,10.621 1.411,18.499 2.413,22.747 0.529,2.25 2.22,4.055 4.478,4.771 5.983,1.898 18.963,3.733 33.735,3.733 14.772,0 27.752,-1.835 33.736,-3.733 2.258,-0.716 3.949,-2.521 4.478,-4.771 1,-4.248 2.412,-12.126 2.412,-22.747 0,-10.621 -1.412,-18.499 -2.413,-22.747zm-46.025 35.247l0 -25 23.214 12.5 -23.214 12.5z"/>
 </g>
</svg>
